# xmcd CD database file
#
# Track frame offsets:
#	182
#	33977
#	71192
#	99442
#	124432
#	162745
#	182460
#	213910
#
# Disc length: 3236 seconds
#
# Revision: 0
# Processed by: cddbd v1.5.1PL0 Copyright (c) Steve Scherf et al.
# Submitted via: CDex 1.51
#
DISCID=720ca208
DTITLE=Quatuor Ysaye - Mozart:Haydn set Disc3
DYEAR=1995
DGENRE=Chamber Music
TTITLE0=Streichquartett Nr. 18 A-dur KV 464 (5. Haydn-Quartett): I. Allegro
TTITLE1=Streichquartett Nr. 18 A-dur KV 464 (5. Haydn-Quartett): II. Menuetto
TTITLE2=Streichquartett Nr. 18 A-dur KV 464 (5. Haydn-Quartett): III. Andante
TTITLE3=Streichquartett Nr. 18 A-dur KV 464 (5. Haydn-Quartett): IV. Allegro non troppo
TTITLE4=Streichquartett Nr. 19 C-dur KV 465 (6. Haydn-Quartett) (Dissonanzen-Quartett): I. Adagio - Allegro
TTITLE5=Streichquartett Nr. 19 C-dur KV 465 (6. Haydn-Quartett) (Dissonanzen-Quartett): II. Andante cantabile
TTITLE6=Streichquartett Nr. 19 C-dur KV 465 (6. Haydn-Quartett) (Dissonanzen-Quartett): III. Allegretto
TTITLE7=Streichquartett Nr. 19 C-dur KV 465 (6. Haydn-Quartett) (Dissonanzen-Quartett): IV. Allegro molto
EXTD=YEAR: 1995
EXTT0=
EXTT1=
EXTT2=
EXTT3=
EXTT4=
EXTT5=
EXTT6=
EXTT7=
PLAYORDER=
